# xmcd
#
# Track frame offsets: 
#        150
#        18997
#        37137
#        57967
#        81346
#        101416
#        122117
#        145027
#
# Disc length: 2184 seconds
#
# Revision: 1
# Processed by: cddbd v1.5.2PL0 Copyright (c) Steve Scherf et al.
# Submitted via: ExactAudioCopy v1.3
#
DISCID=67088608
DTITLE=Lew Kirton - Talk To Me
DYEAR=1983
DGENRE=Soul
TTITLE0=Talk To Me
TTITLE1=I Can't Live Without You
TTITLE2=Don't Give Up Your Dream (Hang On In There)
TTITLE3=Always Will
TTITLE4=Just Can't Get Enough
TTITLE5=Hooked On You
TTITLE6=Got To Find Somebody To Love
TTITLE7=Here's My Love (Come And Get It) 
EXTD=
EXTT0=
EXTT1=
EXTT2=
EXTT3=
EXTT4=
EXTT5=
EXTT6=
EXTT7=
PLAYORDER=
